<svg id="Layer_1" data-name="Layer 1" xmlns="http://www.w3.org/2000/svg" viewBox="0 0 235.21 180.26">
  <defs>
    <style>
      .cls-1 {
        fill: #fff;
      }

      .cls-2 {
        fill: #939598;
      }
    </style>
  </defs>
  <title>timegrid_white</title>
  <g>
    <g>
      <path class="cls-1" d="M59.41,67.57H45.69c-1.43,0-2.33.2-2.71.59s-.56,1.35-.56,2.88V119l0,1.91q.24,5.72,6.4,6.8c1.14.19,1.71.55,1.71,1.09,0,.7-.46,1.06-1.37,1.06a18.61,18.61,0,0,1-2.4-.3,38.6,38.6,0,0,0-4.4-.14l-3.58,0-3.81,0a34.36,34.36,0,0,0-3.48.14c-1.86.2-2.95.3-3.28.3-1,0-1.46-.35-1.46-1.05,0-.51.53-.83,1.61-1,2.5-.32,4.2-1,5.08-2.07s1.31-3,1.31-5.7V71.58l0-1.27a3.29,3.29,0,0,0-.52-2.25,3.71,3.71,0,0,0-2.36-.49H18.94q-4,0-5.74,1.59c-1.19,1-2.11,3-2.76,6C10.15,76.41,9.71,77,9.12,77s-.88-.47-.88-1.31a21.86,21.86,0,0,1,.59-3.75,29.12,29.12,0,0,0,.73-5.79,5.6,5.6,0,0,1,.51-2.94,2.61,2.61,0,0,1,2.18-.71H64.83c1.79,0,2.88.2,3.25.59s.56,1.54.56,3.45a24.49,24.49,0,0,0,.25,4.18c.16,1.1.26,1.9.29,2.38,0,1-.31,1.49-1,1.56s-1-.47-1.17-1.51q-.63-3.47-2-4.52T59.41,67.57Z" transform="translate(-8.24 -4.67)"/>
      <path class="cls-1" d="M89.2,76.73v36.61c0,4.57.28,7.58.83,9a7.6,7.6,0,0,0,2.42,3.53A10.51,10.51,0,0,0,97,127.38c1.63.23,2.44.63,2.44,1.2,0,.76-.5,1.15-1.51,1.15a14.57,14.57,0,0,1-1.85-.16,40.8,40.8,0,0,0-5.18-.22l-7.08-.11-5.76.34a23.21,23.21,0,0,1-2.35.15c-.88,0-1.31-.34-1.31-1s.5-.94,1.51-1.1c2.47-.43,4.07-1.28,4.78-2.57s1.08-4,1.08-8.14V75.06c0-4-.47-6.77-1.39-8.17s-2.91-2.35-5.94-2.84c-1-.19-1.53-.57-1.56-1.14s.44-1,1.42-1c.26,0,.55,0,.88,0a81.81,81.81,0,0,0,9.47.43c2.41,0,4.47-.05,6.2-.16l3.27-.27,1.22,0q1.32,0,1.32.9c0,.58-.42,1-1.27,1.29l-2.54,1C90.4,66,89.2,69.84,89.2,76.73Z" transform="translate(-8.24 -4.67)"/>
      <path class="cls-1" d="M166.59,80q-4.16,7.27-5.53,10.1l-4.35,9.32-5,10.24c-.26.59-1.64,3.64-4.11,9.17q-1.53,3.42-2.65,5.61l-.88,1.85c-.64,1.53-1.33,2.3-2.07,2.3s-1.52-.8-2.23-2.39c-.13-.3-.58-1.19-1.36-2.69l-1-2-18.36-39.6L118,106q-.15,3-.15,11.91,0,8.59,6.06,9.52c2,.32,3,.8,3,1.44s-.48,1.1-1.42,1.1a15.15,15.15,0,0,1-1.8-.1q-5.46-.48-8.43-.48a50,50,0,0,0-6.82.44,12,12,0,0,1-1.51.14c-1,0-1.46-.35-1.46-1.05q0-.81,1.17-1a7.22,7.22,0,0,0,5-3.32c1-1.66,1.52-4.5,1.71-8.5l.69-14.17q.72-15.4.73-19.45,0-8.7-2.3-12.88a10.29,10.29,0,0,0-7.66-5.15q-1.47-.24-1.47-1.2c0-.7.41-1.05,1.22-1.05.29,0,.83,0,1.61.1.46.06,1.56.09,3.32.09,2.67,0,4.36,0,5.08-.09a14,14,0,0,1,1.8-.15q2.1,0,3.51,3.08l.54,1.12,20.35,43.9,2.49,5c.36.84.62,1.27.78,1.27s.44-.31.73-.93l.59-1.32.44-1L168.65,64.1a8,8,0,0,1,1.1-1.93,1.81,1.81,0,0,1,1.29-.36c.26,0,1,.06,2.15.19.42,0,1,0,1.61,0,2,0,3.69-.06,4.93-.19l1.41-.1c.65,0,1,.28,1,1a1.11,1.11,0,0,1-1,1.15l-2.1.54a4.79,4.79,0,0,0-3.49,3q-1,2.47-1,8.1l.29,11.78.93,26.56.25,6.16c0,2.48.45,4.25,1.36,5.33s2.57,1.79,5,2.15c1.73.26,2.59.69,2.59,1.29s-.6,1-1.8,1c-.36,0-.77,0-1.22-.05l-3.8-.39a40.16,40.16,0,0,0-4.09-.2c-1,0-2.6.07-4.78.22q-5.07.27-5.84.27c-.95,0-1.42-.29-1.42-.86s.41-.87,1.22-1.09a5.9,5.9,0,0,0,3.86-2.54q1-1.77,1-6.16l-.2-8Z" transform="translate(-8.24 -4.67)"/>
      <path class="cls-1" d="M207.8,70.12v19.7a5.06,5.06,0,0,0,.42,2.72c.27.31,1.11.47,2.51.47h7.52a44.08,44.08,0,0,0,8.11-.59A6.53,6.53,0,0,0,229.78,91a10,10,0,0,0,1.41-4.1c.17-.82.58-1.21,1.25-1.18s.95.48.95,1.32c0,.23,0,.58-.06,1.07q-.44,4.72-.43,8.62c0,2,.1,4,.29,5.89.07.65.1,1.12.1,1.42,0,.81-.32,1.21-.95,1.21a1.16,1.16,0,0,1-1.25-1.07l-.29-1.37q-.59-3.27-2.34-4.44t-5.94-1.17H211.75a6.85,6.85,0,0,0-3.19.49,2.09,2.09,0,0,0-.81,2l.05,1.62v18q0,4.16,1.49,5.18t7.53,1q19.17,0,24.63-8.64c.36-.56.73-.85,1.1-.88q.9,0,.9,1.26,0,3.16-3.57,7.55A13.42,13.42,0,0,1,229,130c-.94,0-2.21-.06-3.81-.19q-9.31-.89-15.43-.88a84.71,84.71,0,0,0-12.06.58,16.56,16.56,0,0,1-2.53.34c-1.05,0-1.57-.35-1.57-1.05,0-.54.43-.92,1.27-1.14l1.86-.54q3.51-1,3.51-6.85l.05-3.18V75.79q0-7-1.54-9.41c-1-1.62-3-2.42-6-2.42-.94,0-1.41-.31-1.41-.91,0-.89.73-1.34,2.19-1.34a29.72,29.72,0,0,1,3.28.24,151.39,151.39,0,0,0,16.79.79q6,0,10.55-.2l6.93-.34c1.92-.07,3.09-.13,3.52-.2a14.62,14.62,0,0,1,2-.19c1.08,0,1.61.47,1.61,1.41a6.15,6.15,0,0,1-.14,1.12c-.1.45-.23,1.75-.39,3.89l-.2,2.87a19.62,19.62,0,0,1-.5,3.53,1.1,1.1,0,0,1-1.09.75c-.63,0-1-.45-1-1.46V72.65a7.72,7.72,0,0,0-.58-3,5.15,5.15,0,0,0-3.76-2.93Q227.79,66,220.23,66h-7.65c-2,0-3.32.25-3.9.76S207.8,68.39,207.8,70.12Z" transform="translate(-8.24 -4.67)"/>
    </g>
    <g>
      <path class="cls-2" d="M91.15,7H78.56V4.67H106.5V7H93.91V44.21H91.15Z" transform="translate(-8.24 -4.67)"/>
      <path class="cls-2" d="M114.07,4.67h2.76V22H138V4.67h2.76V44.21H138V24.41H116.83v19.8h-2.76Z" transform="translate(-8.24 -4.67)"/>
      <path class="cls-2" d="M152.41,4.67H174V7H155.17V22H171v2.37H155.17V41.83h19.47v2.38H152.41Z" transform="translate(-8.24 -4.67)"/>
    </g>
    <g>
      <path class="cls-2" d="M70.64,164.36c0-12.54,7-20.41,17.49-20.41a14.32,14.32,0,0,1,10.78,4.72l-1.62,1.85a11.72,11.72,0,0,0-9.12-4.07c-9.06,0-14.64,6.9-14.64,17.87s5.29,18.1,14.3,18.1c3.57,0,6.93-1.11,8.83-3V167.12H87.23v-2.35H99.3v15.68c-2.43,2.64-6.49,4.47-11.68,4.47C77.45,184.92,70.64,176.92,70.64,164.36Z" transform="translate(-8.24 -4.67)"/>
      <path class="cls-2" d="M109.48,144.67h11.3c7.86,0,13,2.88,13,10.44,0,7.2-5.15,10.94-13,10.94h-8.54v18.16h-2.76Zm10.58,19.05c7,0,10.89-2.77,10.89-8.61S127.06,147,120.06,147h-7.82v16.73Zm.11,1.52,2.64-.79,11.74,19.76h-3.21Z" transform="translate(-8.24 -4.67)"/>
      <path class="cls-2" d="M142.12,144.67h2.76v39.54h-2.76Z" transform="translate(-8.24 -4.67)"/>
      <path class="cls-2" d="M156.52,144.67h9.14c12.21,0,18,7.68,18,19.64s-5.78,19.9-17.93,19.9h-9.2Zm8.87,37.2c10.71,0,15.37-7.25,15.37-17.56S176.1,147,165.39,147h-6.11v34.86Z" transform="translate(-8.24 -4.67)"/>
    </g>
  </g>
</svg>
